<svg width="16" height="16" viewBox="0 0 16 16" fill="none" xmlns="http://www.w3.org/2000/svg">
<g id="rmx-search-2-line" clip-path="url(#clip0_1_37)">
<path id="Vector" d="M7.33337 1.33331C10.6454 1.33331 13.3334 4.02131 13.3334 7.33331C13.3334 10.6453 10.6454 13.3333 7.33337 13.3333C4.02137 13.3333 1.33337 10.6453 1.33337 7.33331C1.33337 4.02131 4.02137 1.33331 7.33337 1.33331ZM7.33337 12C9.91137 12 12 9.91131 12 7.33331C12 4.75465 9.91137 2.66665 7.33337 2.66665C4.75471 2.66665 2.66671 4.75465 2.66671 7.33331C2.66671 9.91131 4.75471 12 7.33337 12ZM12.99 12.0473L14.876 13.9326L13.9327 14.876L12.0474 12.99L12.99 12.0473Z" fill="#8B8F93"/>
</g>
<defs>
<clipPath id="clip0_1_37">
<rect width="16" height="16" fill="white"/>
</clipPath>
</defs>
</svg>
