<svg width="64" height="64" viewBox="0 0 64 64" fill="none" xmlns="http://www.w3.org/2000/svg">
<g id="ProviderLogo/1x2">
<path id="Vector" d="M48.85 6.39C45.78 10.56 42.78 14.65 39.69 18.85C39.18 18.88 38.56 18.91 37.91 18.95C35.93 21.67 33.95 24.38 31.81 27.3C30.68 25.79 29.68 24.44 28.69 23.11C27.83 21.95 27.03 20.74 26.09 19.65C25.77 19.27 25.14 18.97 24.64 18.95C22.85 18.87 21.05 18.92 19.02 18.92C19.17 19.44 19.18 19.88 19.39 20.17C22.23 24.23 25.08 28.27 28.04 32.44C27.44 33.32 26.82 34.26 26.16 35.16C24.01 38.1 21.81 41 19.73 43.97C19.42 44.42 19.6 45.22 19.82 45.88C17.44 49.33 15.06 52.77 12.68 56.22C-0.940024 45.84 -3.13002 27.18 6.69998 14.15C18.65 -1.69 37.92 -1.41 48.85 6.39ZM17.4 43.14C17.45 42.72 17.5 42.48 17.5 42.23C17.51 36.33 17.51 30.43 17.49 24.53C17.49 23.96 17.35 23.4 17.26 22.83C16.98 21.08 15.85 19.97 14.22 19.82C11.89 19.61 9.52997 19.77 7.19998 19.77C7.19998 20.59 7.19998 21.26 7.19998 21.94C7.48997 21.98 7.67998 22.01 7.85998 22.02C10.58 22.21 10.92 22.56 10.92 25.25C10.92 30.64 10.92 36.02 10.92 41.41C10.92 41.96 10.92 42.52 10.92 43.14C13.15 43.14 15.19 43.14 17.4 43.14Z" fill="#018D47"/>
<path id="Vector_2" d="M44.36 18.66C46.85 15.27 49.31 11.91 51.78 8.55C63.31 17.51 67 33.92 59.36 47.06C49.82 63.46 30.01 67.45 16 58.54C18.68 54.09 21.81 49.94 24.72 45.56C25.26 45.56 25.84 45.56 26.43 45.56C28.38 42.88 30.32 40.23 32.41 37.34C34.53 40.08 36.58 42.73 38.67 45.44C40.79 45.44 42.96 45.44 45.1 45.44C45.76 44.43 44.77 43.93 44.42 43.42C41.82 39.61 39.11 35.88 36.39 32.04C36.68 31.55 36.94 31.06 37.27 30.6C39.64 27.32 41.99 24.03 44.41 20.8C45 20.02 45.19 19.42 44.36 18.66ZM45.69 29.72C47.11 28.74 48.09 28.06 49.07 27.36C50.34 26.47 51.67 25.63 51.19 23.7C51.14 23.49 51.31 23.21 51.42 22.99C51.87 22.06 52.73 22.39 53.45 22.36C54.11 22.34 54.53 22.71 54.6 23.4C54.82 25.74 54.97 28.05 52.59 29.55C52.37 29.68 52.2 29.89 52 30.04C50.46 31.27 48.84 32.43 47.38 33.77C46.66 34.43 45.88 35.4 45.78 36.3C45.53 38.56 45.67 40.86 45.71 43.08C50.63 43.08 55.29 43.08 59.95 43.08C59.95 41.93 59.95 40.94 59.95 39.72C57.12 39.72 54.4 39.72 51.71 39.72C51.33 36.79 51.45 36.37 53.41 34.62C54.37 33.78 55.43 33.07 56.39 32.23C58.23 30.63 59.97 29.03 60.33 26.36C60.8 22.85 59.04 20.06 55.74 19.66C53.99 19.44 52.23 19.26 50.43 19.61C48.13 20.05 45.85 21.98 45.71 24.02C45.6 25.76 45.69 27.49 45.69 29.72Z" fill="#9A999B"/>
</g>
</svg>
