<svg width="64" height="64" viewBox="0 0 64 64" fill="none" xmlns="http://www.w3.org/2000/svg">
<g id="ProviderLogo/amatic">
<path id="Vector" d="M33.4544 5C33.5871 8.65724 35.4784 11.7727 36.7061 15.0574C40.8206 26.4016 45.0346 37.712 49.2817 49.0223C50.6422 52.6457 51.5712 56.6077 55.6525 58.6395C50.0117 58.6395 44.3709 58.6395 38.7634 58.6395C38.6306 57.5559 39.2943 57.3189 39.9579 57.285C43.3423 57.2173 43.7073 55.1177 42.911 52.5103C42.0151 49.4964 40.8538 46.5503 39.8915 43.5365C39.3938 41.911 38.332 41.5386 36.8057 41.6063C34.6489 41.7079 32.4921 41.6401 30.3022 41.6401C20.6797 41.6401 19.9497 42.419 17.9921 52.2055C17.2289 56.0321 19.6179 57.048 22.2724 58.3686C17.8261 59.3168 13.5458 59.0459 9 58.5379C14.7735 55.2532 15.4371 49.0901 17.428 43.8074C21.7747 32.26 25.8891 20.611 30.0368 8.96201C30.4681 7.70907 31.364 6.52385 30.999 5.03386C31.8285 5 32.6249 5 33.4544 5ZM30.3686 16.5135C27.6145 24.336 25.2587 31.1425 22.7369 38.2877C27.15 38.2877 31.0654 38.1861 34.9475 38.3215C37.3366 38.3893 38.0666 37.8813 37.1043 35.3416C34.848 29.4493 32.8571 23.4555 30.3686 16.5135Z" fill="#555555"/>
</g>
</svg>
