<svg width="64" height="64" viewBox="0 0 64 64" fill="none" xmlns="http://www.w3.org/2000/svg">
<g id="ProviderLogo/apollogames" clip-path="url(#clip0_5_558)">
<path id="Vector" d="M64 7.64852L58.4282 13.0748L57.6316 12.0835C51.234 4.11792 41.2654 -0.389503 30.9664 0.0264705C26.8309 0.194102 22.8063 1.13987 19.0074 2.84102C2.76661 10.1113 -4.4736 29.1053 2.86905 45.1834C8.32587 57.1329 20.4208 64.5086 33.6823 63.9726C37.8177 63.805 41.8424 62.8592 45.6413 61.1581C52.6933 58.0021 58.3174 52.5033 61.5873 45.5973L51.9783 41.5432C49.7433 46.063 46.003 49.6598 41.3427 51.7459C38.7711 52.8965 36.0448 53.5381 33.2411 53.6519C24.2635 54.0141 16.072 49.0203 12.3777 40.9285C9.97337 35.6616 9.7852 29.7759 11.8529 24.3558C13.9186 18.9336 17.9871 14.6373 23.306 12.2573C25.8776 11.1067 28.6018 10.4651 31.4034 10.3513C38.8401 10.0512 46.0845 13.617 50.312 19.658L50.8639 20.4464L45.1186 26.0404L63.8453 26.1914L64 7.64852ZM25.3632 46.1023L47.0442 33.0623L25.3632 20.0222V46.1023Z" fill="#C0E600"/>
</g>
<defs>
<clipPath id="clip0_5_558">
<rect width="64" height="64" fill="white"/>
</clipPath>
</defs>
</svg>
