<svg width="64" height="65" viewBox="0 0 64 65" fill="none" xmlns="http://www.w3.org/2000/svg">
<g id="Clip path group">
<mask id="mask0_5_554" style="mask-type:luminance" maskUnits="userSpaceOnUse" x="0" y="0" width="64" height="65">
<g id="clip0_1502_2">
<path id="Vector" d="M64 0H0V64.0165H64V0Z" fill="white"/>
</g>
</mask>
<g mask="url(#mask0_5_554)">
<g id="Group">
<path id="Vector_2" d="M59.9214 47.636C62.5109 43.0114 64 37.6836 64 32.0083C64 14.3288 49.6711 0 32 0C14.3289 0 0 14.3288 0 32.0083C0 42.5977 5.14581 51.971 13.0714 57.8035L41.365 7.10651L59.9214 47.636Z" fill="#C32107"/>
<path id="Vector_3" d="M22.6436 62.6184C25.6053 63.5202 28.749 64.0166 32.0003 64.0166C41.7046 64.0166 50.383 59.698 56.2485 52.8811L41.3571 19.5326L22.6436 62.6184Z" fill="#C32107"/>
<path id="Vector_4" d="M41.3572 7.10651L13.0635 57.8035C15.9259 59.9131 19.1607 61.5595 22.6436 62.6184L41.3572 19.5326L56.2486 52.8811C57.6384 51.2678 58.8711 49.514 59.9218 47.6443L41.3572 7.10651Z" fill="white"/>
</g>
</g>
</g>
</svg>
