<svg width="36" height="64" viewBox="0 0 36 64" fill="none" xmlns="http://www.w3.org/2000/svg">
<g id="Group">
<path id="Vector" d="M0.209961 41.93C0.209961 35.46 0.209961 29.09 0.209961 22.49C4.23996 22.57 8.25996 22.28 12.11 23.73C13.56 24.27 14.66 25.21 14.87 26.84C15.09 28.47 14.17 29.6 12.93 30.5C12.53 30.79 12.12 31.06 11.53 31.44C12.06 31.63 12.44 31.77 12.8 31.92C16.1 33.23 16.78 36.8 13.98 38.95C12.53 40.07 10.67 40.73 8.87996 41.29C6.10996 42.17 3.17996 42.06 0.209961 41.93ZM6.00996 38.49C8.25996 38.25 9.71996 37.09 9.62996 35.67C9.54996 34.28 8.20996 33.41 6.00996 33.33C6.00996 35.05 6.00996 36.77 6.00996 38.49ZM5.99996 30.52C7.90996 30.3 9.05996 29.13 8.99996 27.56C8.94996 26.19 8.16996 25.66 5.99996 25.6C5.99996 27.22 5.99996 28.86 5.99996 30.52Z" fill="#DEDEDE"/>
<path id="Vector_2" d="M18.06 22.08C21.96 23.2 24.51 25.55 25.87 29.54C27.61 25.76 30.09 23.23 34.06 22.05C34.63 23.87 35.19 25.65 35.8 27.55C32.84 28.51 30.21 30 29.41 33.05C28.71 35.76 28.69 38.64 28.36 41.59C26.66 41.59 24.66 41.59 22.67 41.59C22.67 39.98 22.7 38.37 22.65 36.78C22.55 32.29 20.67 29.04 15.99 27.65C16.7 25.74 17.37 23.96 18.06 22.08Z" fill="#DEDEDE"/>
<path id="Vector_3" d="M24.1599 15.46C24.1599 17.15 24.1599 18.69 24.1599 20.29C19.3199 20.29 14.4699 20.29 9.76993 20.29C8.98993 19.3 9.68993 18.94 10.1699 18.47C11.9499 16.69 13.7199 14.9 15.4799 13.09C15.7499 12.82 15.9599 12.47 16.1499 12.13C18.0599 8.86 17.0099 6.33 13.3099 5.44C12.3999 5.22 11.4799 5.09 10.4899 4.91C10.7599 3.44 11.0199 2.09 11.2699 0.610001C14.7699 0.850001 18.1199 1.42 20.9599 3.54C23.6999 5.6 24.2599 8.7 22.2799 11.55C21.2599 13.03 19.8399 14.26 18.4699 15.76C20.3899 15.67 22.2399 15.57 24.1599 15.46Z" fill="#DEDEDE"/>
<path id="Vector_4" d="M17.46 58.86C19.37 58.75 21.19 58.64 23.1 58.54C23.1 60.24 23.1 61.84 23.1 63.38C18.19 63.38 13.4 63.38 8.73001 63.38C7.92001 62.42 8.62001 62.06 9.08001 61.6C10.72 60.01 12.39 58.43 13.99 56.77C14.6 56.13 15.07 55.34 15.47 54.54C16.84 51.88 15.88 49.62 13.03 48.76C11.91 48.43 10.75 48.23 9.48001 47.96C9.73001 46.59 9.97001 45.24 10.26 43.69C14.1 44.04 17.78 44.57 20.7 47.29C22.8 49.27 23.09 52.1 21.32 54.63C20.3 56.12 18.88 57.35 17.46 58.86Z" fill="#DEDEDE"/>
</g>
</svg>
